<svg id="Layer_1" data-name="Layer 1" xmlns="http://www.w3.org/2000/svg" viewBox="0 0 290.5 512"><defs><style>.cls-1{fill:#dbb968;}</style></defs><path class="cls-1" d="M290,511H208a24.8,24.8,0,0,1-24.8-24.8v-185H135.4a24.8,24.8,0,0,1-24.8-24.8V197.2a24.8,24.8,0,0,1,24.8-24.8h47.8V132.7c0-39.3,12.4-72.8,35.7-96.8C242.4,11.7,275.2-1,313.8-1l62.5.1a24.86,24.86,0,0,1,24.8,24.8V97.5a24.8,24.8,0,0,1-24.8,24.8H334.2c-12.8,0-16.1,2.6-16.8,3.4-1.2,1.3-2.5,5-2.5,15.2v31.4h58.3a25.81,25.81,0,0,1,12.3,3.1,24.86,24.86,0,0,1,12.8,21.7v79.2a24.8,24.8,0,0,1-24.8,24.8H315V486A25.14,25.14,0,0,1,290,511Zm-76.8-30h71.6V287.8a16.62,16.62,0,0,1,16.6-16.6h66.7V202.3H301.3a16.62,16.62,0,0,1-16.6-16.6V141c0-11.7,1.2-25.1,10-35.1,10.7-12.1,27.6-13.5,39.3-13.5h36.9V29.1L313.8,29c-62,0-100.6,39.7-100.6,103.6v53.1a16.62,16.62,0,0,1-16.6,16.6H140.5v68.9h56.1a16.62,16.62,0,0,1,16.6,16.6V481ZM376.3,29.1Z" transform="translate(-110.6 1)"/></svg>