<svg id="Layer_1" data-name="Layer 1" xmlns="http://www.w3.org/2000/svg" viewBox="0 0 512 512.01"><defs><style>.cls-1{fill:#dbb968;}</style></defs><path class="cls-1" d="M261,512h-5.1c-40.1.1-77.2-.9-113.3-3.1-33.1-2-63.2-13.4-87.3-33-23.2-18.9-39-44.5-47.1-76C1.2,372.5.8,345.5.5,319.5.3,300.7.1,278.6,0,256c.1-22.6.3-44.8.6-63.5.4-26,.7-53,7.7-80.4,8-31.5,23.9-57.1,47.1-76,24-19.6,54.2-31,87.3-33C178.7.9,215.8-.1,256,0c40.1-.1,77.2.9,113.3,3.1,33.1,2,63.2,13.4,87.3,33,23.2,18.9,39,44.5,47.1,76,7,27.4,7.4,54.4,7.7,80.4.3,18.7.5,40.8.6,63.4v.1c-.1,22.5-.3,44.7-.6,63.4-.4,26-.7,53-7.7,80.4-8,31.5-23.9,57.1-47.1,76-24,19.6-54.2,31-87.3,33C334.8,511,299.3,512,261,512Zm-5.1-40c39.5.1,75.7-.9,110.9-3,25-1.5,46.7-9.6,64.4-24.1,16.4-13.4,27.7-31.9,33.6-54.9,5.8-22.8,6.2-47.4,6.5-71.1.3-18.6.5-40.6.6-62.9-.1-22.3-.3-44.3-.6-62.9-.3-23.7-.7-48.2-6.5-71.1s-17.2-41.5-33.6-54.9C413.4,52.6,391.8,44.5,366.8,43c-35.2-2.1-71.5-3.1-110.9-3-39.5-.1-75.7.9-110.9,3-25,1.5-46.7,9.6-64.4,24.1C64.2,80.5,52.9,99,47.1,122.1c-5.8,22.8-6.2,47.4-6.5,71.1-.3,18.6-.5,40.6-.6,62.9.1,22.2.3,44.2.6,62.8.3,23.7.7,48.2,6.5,71.1s17.2,41.5,33.6,54.9c17.8,14.5,39.4,22.6,64.4,24.1C180.3,471.1,216.6,472.1,255.9,472Zm-.9-91c-68.9,0-125-56.1-125-125s56.1-125,125-125,125,56.1,125,125S323.9,381,255,381Zm0-210a85,85,0,1,0,85,85A85.06,85.06,0,0,0,255,171ZM394,91a30,30,0,1,0,30,30A30,30,0,0,0,394,91Z" transform="translate(0 0.01)"/></svg>