<?xml version="1.0" encoding="utf-8"?>
<!-- Generator: Adobe Illustrator 23.1.0, SVG Export Plug-In . SVG Version: 6.00 Build 0)  -->
<svg version="1.1" id="Layer_1" xmlns="http://www.w3.org/2000/svg" xmlns:xlink="http://www.w3.org/1999/xlink" x="0px" y="0px"
	 viewBox="0 0 105 84" style="enable-background:new 0 0 105 84;" xml:space="preserve">
<style type="text/css">
	.st0{fill:#FFFFFF;}
</style>
<g>
	<path class="st0" d="M10.3,31.5c6.5,4.5,13,9,19.5,13.5c4.4,3.1,8.8,6.4,13.3,9.3c3,1.9,6.3,3.3,10,2.9c3.5-0.3,6.6-1.9,9.4-3.8
		c9.4-6.5,18.8-13,28.1-19.6c1.1-0.8,2.1-1.8,3.3-2.8c0,0.6,0,1,0,1.4c0,11.6,0,23.1,0,34.7c0,3.1-1.3,5.4-3.9,6.9
		c-1.1,0.6-2.4,0.9-3.6,0.9c-23,0.1-45.9,0-68.9,0c-3.9,0-7.3-3.3-7.3-7.2c0-12,0-24,0-36C10.2,31.6,10.3,31.5,10.3,31.5z"/>
	<path class="st0" d="M52.1,9.3c11.4,0,22.7,0,34.1,0c3.5,0,6.5,2.1,7.5,5.4c0.8,2.9-0.1,5.5-1.5,8c-1.6,2.7-3.8,4.9-6.4,6.7
		c-7.4,5.1-14.7,10.2-22.1,15.3c-2.3,1.6-4.5,3.1-6.8,4.6c-3.4,2.3-6.8,2-10-0.2c-5.5-3.8-10.9-7.5-16.4-11.3c-4.4-3.1-9-6-13.3-9.3
		c-3.2-2.5-6-5.5-6.8-9.7c-0.6-2.8,0.5-7,3.7-8.6c1.2-0.6,2.7-0.9,4-0.9C29.4,9.2,40.7,9.3,52.1,9.3z"/>
</g>
</svg>
