<?xml version="1.0" encoding="utf-8"?>
<!-- Generator: Adobe Illustrator 24.1.2, SVG Export Plug-In . SVG Version: 6.00 Build 0)  -->
<svg version="1.1" id="Layer_1" xmlns="http://www.w3.org/2000/svg" xmlns:xlink="http://www.w3.org/1999/xlink" x="0px" y="0px"
	 viewBox="0 0 25.8 20.6" style="enable-background:new 0 0 25.8 20.6;" xml:space="preserve">
<style type="text/css">
	.st0{fill:#FFFFFF;}
</style>
<g>
	<path class="st0" d="M0.5,7.3c1.9,1.4,3.8,2.7,5.8,4.1c1.3,0.9,2.6,1.9,3.9,2.8c0.9,0.6,1.9,1,3,0.9c1-0.1,2-0.6,2.8-1.1
		c2.8-2,5.6-3.9,8.3-5.9c0.3-0.2,0.6-0.5,1-0.8c0,0.2,0,0.3,0,0.4c0,3.5,0,7,0,10.5c0,0.9-0.4,1.6-1.2,2.1c-0.3,0.2-0.7,0.3-1.1,0.3
		c-6.8,0-13.6,0-20.4,0c-1.2,0-2.2-1-2.2-2.2C0.5,14.6,0.5,11,0.5,7.3C0.5,7.3,0.5,7.3,0.5,7.3z"/>
	<path class="st0" d="M12.9,0.6c3.4,0,6.7,0,10.1,0c1,0,1.9,0.6,2.2,1.6c0.2,0.9,0,1.7-0.4,2.4c-0.5,0.8-1.1,1.5-1.9,2
		c-2.2,1.5-4.4,3.1-6.5,4.6c-0.7,0.5-1.3,0.9-2,1.4c-1,0.7-2,0.6-3-0.1c-1.6-1.1-3.2-2.3-4.9-3.4C5.2,8.3,3.8,7.4,2.6,6.4
		c-0.9-0.8-1.8-1.7-2-2.9C0.4,2.6,0.7,1.4,1.7,0.9C2,0.7,2.5,0.6,2.8,0.6C6.2,0.6,9.5,0.6,12.9,0.6z"/>
</g>
</svg>
