<?xml version="1.0" encoding="utf-8"?>
<!-- Generator: Adobe Illustrator 24.1.2, SVG Export Plug-In . SVG Version: 6.00 Build 0)  -->
<svg version="1.1" id="Layer_1" xmlns="http://www.w3.org/2000/svg" xmlns:xlink="http://www.w3.org/1999/xlink" x="0px" y="0px"
	 viewBox="0 0 105 84" style="enable-background:new 0 0 105 84;" xml:space="preserve">
<style type="text/css">
	.st0{fill:#FFFFFF;}
</style>
<g>
	<path class="st0" d="M41.7,39.5c1.6,1.1,3.3,2.3,4.9,3.4c1.1,0.8,2.2,1.6,3.3,2.3c0.8,0.5,1.6,0.8,2.5,0.7c0.9-0.1,1.7-0.5,2.4-1
		c2.3-1.6,4.7-3.3,7-4.9c0.3-0.2,0.5-0.5,0.8-0.7c0,0.1,0,0.3,0,0.3c0,2.9,0,5.8,0,8.7c0,0.8-0.3,1.3-1,1.7
		c-0.3,0.2-0.6,0.2-0.9,0.2c-5.8,0-11.5,0-17.2,0c-1,0-1.8-0.8-1.8-1.8C41.6,45.5,41.6,42.5,41.7,39.5
		C41.6,39.5,41.7,39.5,41.7,39.5z"/>
	<path class="st0" d="M52.1,33.9c2.9,0,5.7,0,8.5,0c0.9,0,1.6,0.5,1.9,1.4c0.2,0.7,0,1.4-0.4,2c-0.4,0.7-1,1.2-1.6,1.7
		c-1.8,1.3-3.7,2.5-5.5,3.8c-0.6,0.4-1.1,0.8-1.7,1.1c-0.9,0.6-1.7,0.5-2.5,0c-1.4-1-2.7-1.9-4.1-2.8c-1.1-0.8-2.3-1.5-3.3-2.3
		c-0.8-0.6-1.5-1.4-1.7-2.4c-0.2-0.7,0.1-1.8,0.9-2.1c0.3-0.2,0.7-0.2,1-0.2C46.4,33.9,49.3,33.9,52.1,33.9z"/>
</g>
</svg>
