<?xml version="1.0" encoding="utf-8"?>
<!-- Generator: Adobe Illustrator 24.1.2, SVG Export Plug-In . SVG Version: 6.00 Build 0)  -->
<svg version="1.1" id="Capa_1" xmlns="http://www.w3.org/2000/svg" xmlns:xlink="http://www.w3.org/1999/xlink" x="0px" y="0px"
	 viewBox="0 0 32.7 32.7" style="enable-background:new 0 0 32.7 32.7;" xml:space="preserve">
<g>
	<path d="M28.2,16.5h-1.7c0-5.4-4.4-9.9-9.9-9.9V4.9C23,5,28.2,10.1,28.2,16.5z M16.7,7.9v1.7c3.9,0,7,3.1,7,7h1.7
		C25.3,11.7,21.4,7.9,16.7,7.9z M16.3,0C7.3,0,0,7.3,0,16.3s7.3,16.3,16.3,16.3c0.6,0,1-0.5,1-1c0-0.6-0.5-1-1-1
		C8.4,30.6,2,24.2,2,16.3S8.4,2,16.3,2s14.3,6.4,14.3,14.3c0,3.3-1.8,6.6-4.3,8c-0.9,0.5-1.9,0.8-3,0.8c0.6-0.4,1.2-0.9,1.6-1.5
		c0.1-0.1,0.2-0.2,0.2-0.4c0.3-0.8,0.4-1.7,0.6-2.5c0.2-1.1-4.7-3.1-5.1-1.8c-0.2,0.5-0.4,2-0.7,2.5c-0.3,0.4-1,0.2-1.4-0.2
		c-1.1-1-2.4-2.4-3.5-3.5l0,0l-0.1-0.1l-0.1-0.1l0,0c-1.1-1.1-2.5-2.3-3.5-3.5c-0.4-0.4-0.5-1.1-0.2-1.4c0.4-0.3,2-0.5,2.5-0.7
		c1.3-0.4-0.8-5.3-1.8-5.1C11,7,10.1,7,9.3,7.4c0.1,0.1,0,0.2-0.2,0.3c-2.8,1.7-3.1,6-0.4,9.2c1,1.2,2.1,2.4,3.2,3.6l0,0l0.1,0.1
		l0.1,0.1l0,0c1.2,1.1,2.5,2.8,4.8,4.3c4.7,3.1,8.3,2.3,10.4,1.1c3.7-2,5.3-6.3,5.3-9.7C32.7,7.3,25.3,0,16.3,0z"/>
</g>
</svg>
