<?xml version="1.0" encoding="utf-8"?>
<!-- Generator: Adobe Illustrator 23.1.0, SVG Export Plug-In . SVG Version: 6.00 Build 0)  -->
<svg version="1.1" id="Layer_1" xmlns="http://www.w3.org/2000/svg" xmlns:xlink="http://www.w3.org/1999/xlink" x="0px" y="0px"
	 viewBox="0 0 81 78" style="enable-background:new 0 0 81 78;" xml:space="preserve">
<style type="text/css">
	.st0{fill:#FFFFFF;}
</style>
<g>
	<path class="st0" d="M56.5,73c-1.3-0.3-3.3-0.5-5.2-1.2c-4.3-1.6-8.6-3.1-12.7-5.1c-6.1-3.1-11-7.8-15.7-12.8
		c-4.2-4.4-8.1-9.1-10.6-14.7c-2-4.6-4-9.2-4.8-14.2c-0.5-3.2,0.1-6.4,1.6-9.3c1-1.9,2.2-3.7,3.5-5.4c0.5-0.6,1.2-1.3,2-1.5
		c2.1-0.7,4.3-1.2,6.5-1.6c0.6-0.1,1.5,0.4,1.8,1c1.7,2.7,3.1,5.5,4.7,8.2c0.9,1.5,1.8,2.9,2.7,4.4c1.1,1.8,1.1,2.8-0.4,4.2
		c-1.9,1.8-3.9,3.4-5.8,5.2c-1.8,1.7-1.9,2.5-0.7,4.6c2.4,4.3,5,8.5,8.4,12c3.4,3.5,7.2,6.5,11.5,8.8c1.1,0.6,2.3,1.2,3.5,1.8
		c1.1,0.5,2.1,0.2,2.8-0.6c1.3-1.4,2.5-3,3.9-4.4c0.8-0.9,1.7-1.8,2.6-2.6c0.9-0.8,1.9-0.7,2.9-0.1c4.1,2.4,8.2,4.8,12.3,7.1
		c1.9,1.1,2.1,1.6,1.7,4.2c-0.1,0.9-0.4,1.7-0.6,2.6c-0.5,2.2-1.8,3.9-3.6,5.2C65.2,71.2,61.4,72.8,56.5,73z"/>
</g>
</svg>
