<?xml version="1.0" encoding="utf-8"?>
<!-- Generator: Adobe Illustrator 24.1.2, SVG Export Plug-In . SVG Version: 6.00 Build 0)  -->
<svg version="1.1" id="Layer_1" xmlns="http://www.w3.org/2000/svg" xmlns:xlink="http://www.w3.org/1999/xlink" x="0px" y="0px"
	 viewBox="0 0 28 28" style="enable-background:new 0 0 28 28;" xml:space="preserve">
<g>
	<path d="M20.5,26.7c-0.5-0.1-1.3-0.2-2.1-0.5c-1.7-0.6-3.5-1.2-5.1-2c-2.5-1.2-4.4-3.1-6.3-5c-1.7-1.7-3.3-3.6-4.3-5.8
		c-0.8-1.8-1.6-3.6-1.9-5.6c-0.2-1.3,0-2.5,0.6-3.7c0.4-0.7,0.9-1.5,1.4-2.1C3,1.9,3.3,1.6,3.6,1.5C4.5,1.2,5.4,1,6.3,0.9
		C6.5,0.8,6.9,1,7,1.3c0.7,1.1,1.3,2.2,1.9,3.2C9.3,5.1,9.6,5.6,10,6.2c0.4,0.7,0.4,1.1-0.2,1.7C9,8.6,8.2,9.2,7.5,9.9
		c-0.7,0.7-0.8,1-0.3,1.8c1,1.7,2,3.3,3.4,4.7c1.4,1.4,2.9,2.6,4.6,3.5c0.4,0.2,0.9,0.5,1.4,0.7c0.4,0.2,0.8,0.1,1.1-0.2
		c0.5-0.6,1-1.2,1.6-1.7c0.3-0.4,0.7-0.7,1-1c0.4-0.3,0.8-0.3,1.2,0c1.7,0.9,3.3,1.9,5,2.8c0.8,0.4,0.8,0.6,0.7,1.7
		c0,0.4-0.2,0.7-0.2,1c-0.2,0.9-0.7,1.5-1.5,2C24.1,26,22.5,26.7,20.5,26.7z"/>
</g>
</svg>
