<svg id="Layer_1" data-name="Layer 1" xmlns="http://www.w3.org/2000/svg" viewBox="0 0 512 369.6"><defs><style>.cls-1{fill:#dbb968;}</style></defs><path class="cls-1" d="M501.4,135.2a75.66,75.66,0,0,0-53.2-53.5C409.8,71.3,271.6,71,256,71s-153.8.3-192.2,10.6a75.66,75.66,0,0,0-53.2,53.5C.1,174.4,0,252.4,0,255.8s.1,81.3,10.6,120.6a75.66,75.66,0,0,0,53.2,53.5c38.4,10.4,176.6,10.7,192.2,10.7s153.8-.3,192.2-10.6a75.66,75.66,0,0,0,53.2-53.5C511.9,337.2,512,259.2,512,255.9S511.9,174.4,501.4,135.2Zm-29,233.4a45.29,45.29,0,0,1-32,32.2c-29.3,7.9-143,9.6-184.4,9.6s-155.2-1.7-184.4-9.6a45.42,45.42,0,0,1-32-32.3c-9.5-35.4-9.6-112-9.6-112.7s.1-77.4,9.6-112.9a45.29,45.29,0,0,1,32-32.2c29.3-7.9,143-9.6,184.4-9.6s155.2,1.7,184.4,9.6a45.42,45.42,0,0,1,32,32.3c9.4,35.5,9.6,112.1,9.6,112.9S481.9,333.1,472.4,368.6Z" transform="translate(0 -71)"/><path class="cls-1" d="M191.7,353.3,363,255.8,191.7,158.2Zm30-143.5,80.7,45.9-80.7,45.9Z" transform="translate(0 -71)"/></svg>