<?xml version="1.0" encoding="utf-8"?>
<!-- Generator: Adobe Illustrator 23.1.0, SVG Export Plug-In . SVG Version: 6.00 Build 0)  -->
<svg version="1.1" id="Layer_1" xmlns="http://www.w3.org/2000/svg" xmlns:xlink="http://www.w3.org/1999/xlink" x="0px" y="0px"
	 viewBox="0 0 512 512" style="enable-background:new 0 0 512 512;" xml:space="preserve">
<style type="text/css">
	.st0{fill:#FFFFFF;}
</style>
<path class="st0" d="M501.4,135.2c-6.9-26-27.3-46.5-53.2-53.5C409.8,71.3,271.6,71,256,71S102.2,71.3,63.8,81.6
	c-25.9,7-46.3,27.5-53.2,53.5C0.1,174.4,0,252.4,0,255.8s0.1,81.3,10.6,120.6c6.9,26,27.3,46.5,53.2,53.5
	c38.4,10.4,176.6,10.7,192.2,10.7s153.8-0.3,192.2-10.6c25.9-7,46.3-27.5,53.2-53.5c10.5-39.3,10.6-117.3,10.6-120.6
	S511.9,174.4,501.4,135.2z M472.4,368.6c-4.2,15.7-16.4,28.1-32,32.2c-29.3,7.9-143,9.6-184.4,9.6c-41.4,0-155.2-1.7-184.4-9.6
	c-15.6-4.2-27.8-16.5-32-32.3C30.1,333.1,30,256.5,30,255.8s0.1-77.4,9.6-112.9c4.2-15.7,16.4-28.1,32-32.2
	c29.3-7.9,143-9.6,184.4-9.6s155.2,1.7,184.4,9.6c15.6,4.2,27.8,16.5,32,32.3c9.4,35.5,9.6,112.1,9.6,112.9S481.9,333.1,472.4,368.6
	z"/>
<path class="st0" d="M191.7,353.3L363,255.8l-171.3-97.6V353.3z M221.7,209.8l80.7,45.9l-80.7,45.9V209.8z"/>
</svg>
